<?xml version="1.0" encoding="UTF-8"?>
<svg version="1.1" xmlns="http://www.w3.org/2000/svg" width="256" height="256">
<path d="M0 0 C22.0302339 18.80452016 36.48251019 41.06532637 44.3515625 68.91015625 C44.69316406 70.09996094 45.03476563 71.28976563 45.38671875 72.515625 C52.81217988 104.18608014 46.42571339 139.57251359 29.7109375 167.21484375 C11.42957677 196.29335081 -15.82560746 215.63430261 -48.6484375 224.91015625 C-49.83824219 225.25175781 -51.02804688 225.59335938 -52.25390625 225.9453125 C-83.92436139 233.37077363 -119.31079484 226.98430714 -146.953125 210.26953125 C-176.03163206 191.98817052 -195.37258386 164.73298629 -204.6484375 131.91015625 C-204.99003906 130.72035156 -205.33164063 129.53054687 -205.68359375 128.3046875 C-213.10905488 96.63423236 -206.72258839 61.24779891 -190.0078125 33.60546875 C-171.72645177 4.52696169 -144.47126754 -14.81399011 -111.6484375 -24.08984375 C-110.45863281 -24.43144531 -109.26882812 -24.77304687 -108.04296875 -25.125 C-71.1180264 -33.78242923 -29.24008954 -23.98389969 0 0 Z " fill="#000000" transform="translate(208.6484375,28.08984375)"/>
<path d="M0 0 C0.87884354 -0.00043808 1.75768707 -0.00087616 2.66316223 -0.00132751 C5.54723892 0.00075051 8.43072303 0.02403479 11.31469727 0.04760742 C13.32251162 0.05320689 15.33033009 0.05747533 17.33815002 0.06047058 C22.60716183 0.07189173 27.87592317 0.10133544 33.14483643 0.13458252 C38.52759412 0.1653423 43.91039252 0.17898853 49.29321289 0.1940918 C59.84345278 0.22620774 70.39350727 0.27737105 80.94360352 0.34057617 C80.63485747 1.75787273 80.32437529 3.17479115 80.01318359 4.59155273 C79.8404744 5.38064026 79.6677652 6.16972778 79.48982239 6.98272705 C78.69444334 10.41611958 77.70108414 13.73076732 76.63110352 17.09057617 C76.0490918 18.9700293 76.0490918 18.9700293 75.45532227 20.88745117 C73.80310296 24.66151285 72.08659248 26.70923658 68.94360352 29.34057617 C65.70679981 30.41951074 63.36364422 30.46510012 59.95922852 30.46655273 C58.72785156 30.4703595 57.49647461 30.47416626 56.2277832 30.47808838 C55.57048218 30.47828224 54.91318115 30.4784761 54.23596191 30.47867584 C51.47012978 30.48209573 48.70453183 30.50345873 45.93878174 30.52390671 C40.79061695 30.56192571 35.64270607 30.59318648 30.49438477 30.59106445 C26.91146199 30.59027846 23.32940172 30.61358583 19.7467041 30.65294647 C18.38159053 30.66342183 17.01637759 30.66491907 15.65124512 30.65729523 C13.74346775 30.64770051 11.83561051 30.67159097 9.92797852 30.69702148 C8.84226563 30.70066711 7.75655273 30.70431274 6.63793945 30.70806885 C3.730837 31.08774226 3.730837 31.08774226 2.12033081 33.75416565 C1.12215005 35.94813635 0.22903778 38.05344698 -0.48608398 40.35229492 C-0.72125732 41.10043457 -0.95643066 41.84857422 -1.19873047 42.61938477 C-1.44051025 43.41425293 -1.68229004 44.20912109 -1.93139648 45.02807617 C-2.19186768 45.86677246 -2.45233887 46.70546875 -2.72070312 47.56958008 C-4.64329186 53.82107173 -6.38634412 60.11364776 -8.09106445 66.42724609 C-9.95511397 73.2151861 -12.19911468 79.85560553 -14.46801758 86.51708984 C-16.6119852 92.86437775 -18.47042757 99.24746272 -20.20605469 105.71655273 C-22.29176096 113.39937684 -24.82825635 120.9197462 -27.40942383 128.44799805 C-28.30704036 131.07378046 -29.18260731 133.70678511 -30.05639648 136.34057617 C-39.04705497 135.20505467 -46.84889186 130.55732785 -54.04467773 125.22338867 C-56.51119662 120.63318749 -53.84020374 114.36327247 -52.45483398 109.68041992 C-51.7870084 107.54421389 -51.11218148 105.41018757 -50.43139648 103.27807617 C-49.70306589 100.95790991 -48.97521073 98.63759435 -48.24780273 96.31713867 C-47.69697021 94.56965332 -47.69697021 94.56965332 -47.13500977 92.78686523 C-45.50763481 87.58722175 -43.94043172 82.36980334 -42.36889648 77.15307617 C-40.50013954 70.97340712 -38.57724165 64.82627967 -36.49389648 58.71557617 C-34.52532287 52.90635404 -32.78961545 47.05453001 -31.11889648 41.15307617 C-30.86744873 40.27103516 -30.61600098 39.38899414 -30.35693359 38.48022461 C-29.06143833 33.92636247 -27.79153777 29.36715016 -26.55249023 24.79760742 C-26.05439022 23.02009602 -25.55571319 21.24274618 -25.05639648 19.46557617 C-24.84378174 18.65193604 -24.63116699 17.8382959 -24.41210938 17 C-22.83921947 11.49402332 -20.61503213 6.96558628 -16.05639648 3.34057617 C-10.51361215 0.48454241 -6.18184945 -0.08167124 0 0 Z " fill="#F9F9F9" transform="translate(135.056396484375,45.659423828125)"/>
<path d="M0 0 C-2.28896162 11.99320514 -6.26465238 23.46973727 -10.04394531 35.05517578 C-11.09588461 38.29534223 -12.12780359 41.54093219 -13.13769531 44.79443359 C-13.73217148 46.69305964 -14.35396856 48.58306381 -14.9765625 50.47265625 C-16.0866728 53.98949101 -16.0866728 53.98949101 -16.5234375 57.68359375 C-17.18212279 61.52022171 -17.68303406 63.85189799 -20 67 C-24.49218279 69.27408897 -29.38300798 70.09923872 -34.30078125 70.97265625 C-38.91313659 71.82631131 -42.11892215 73.36989044 -46 76 C-48.81488469 81.62976937 -47.01443511 88.75177317 -45.375 94.5 C-43.34090388 100.57373963 -40.69882336 105.78024928 -37 111 C-36.52175781 111.68578125 -36.04351562 112.3715625 -35.55078125 113.078125 C-25.66851608 125.72344164 -8.48747716 132.82116912 7 135 C10.94293806 135.2402082 14.86362033 135.23796492 18.8125 135.1875 C19.86115234 135.18105469 20.90980469 135.17460937 21.99023438 135.16796875 C29.3614537 135.09494119 36.66807986 134.80192877 44 134 C42.25702168 140.60671781 39.99585425 147.03459376 37.625 153.4375 C37.34519287 154.23075684 37.06538574 155.02401367 36.77709961 155.84130859 C35.45241028 159.34058695 34.55373604 161.53548721 31.6484375 163.97265625 C16.03597794 170.02881682 -4.05275966 165.47451125 -18.83984375 159.4375 C-35.66563912 151.78373894 -50.4253843 139.13137382 -58 122 C-60.09963783 116.12101408 -61.79917518 110.26020557 -61 104 C-58 102 -58 102 -55.875 101.5625 C-54.946875 101.2840625 -54.946875 101.2840625 -54 101 C-53.08307039 98.24921116 -52.89113917 96.64051087 -52.9375 93.8125 C-52.958125 92.554375 -52.97875 91.29625 -53 90 C-53.969375 90.825 -54.93875 91.65 -55.9375 92.5 C-59 95 -59 95 -60 95 C-60.25438157 89.6717607 -59.43484153 85.34044393 -57.69140625 80.35546875 C-57.4493898 79.63627258 -57.20737335 78.91707642 -56.95802307 78.17608643 C-56.16993466 75.84286753 -55.36677438 73.51518397 -54.5625 71.1875 C-54.01145986 69.57129948 -53.46117308 67.95484191 -52.91162109 66.33813477 C-51.80606143 63.09125307 -50.69415497 59.84664428 -49.57763672 56.60351562 C-48.16317789 52.48860979 -46.78206359 48.36365877 -45.41015625 44.234375 C-44.64900473 41.96855937 -43.8873252 39.70292102 -43.125 37.4375 C-42.79314697 36.43033936 -42.46129395 35.42317871 -42.11938477 34.38549805 C-38.19553296 22.89359354 -34.02036622 13.86816953 -23 8 C-6.48822927 0 -6.48822927 0 0 0 Z " fill="#C2000A" transform="translate(108,52)"/>
<path d="M0 0 C-2.28896162 11.99320514 -6.26465238 23.46973727 -10.04394531 35.05517578 C-11.09588461 38.29534223 -12.12780359 41.54093219 -13.13769531 44.79443359 C-13.73217148 46.69305964 -14.35396856 48.58306381 -14.9765625 50.47265625 C-16.0866728 53.98949101 -16.0866728 53.98949101 -16.5234375 57.68359375 C-17.18067749 61.51180333 -17.69311467 63.85593854 -20 67 C-24.46125461 69.23994099 -29.39561278 70.00730939 -34.2578125 70.953125 C-39.98125384 72.08384816 -44.32934726 74.56747288 -49 78 C-50.485 78.99 -50.485 78.99 -52 80 C-52.33 79.01 -52.66 78.02 -53 77 C-52.34 76.4225 -51.68 75.845 -51 75.25 C-48.55709077 73.00346023 -48.55709077 73.00346023 -49 69 C-50.98 69.99 -50.98 69.99 -53 71 C-52.38943348 65.50897481 -51.05602225 60.60903469 -49.26953125 55.390625 C-48.86017586 54.17944 -48.86017586 54.17944 -48.44255066 52.94378662 C-47.8648806 51.24170966 -47.28395406 49.54073481 -46.69995117 47.84082031 C-45.82119055 45.27537115 -44.95988146 42.704511 -44.09960938 40.1328125 C-35.4605683 14.6350542 -35.4605683 14.6350542 -23 8 C-6.48822927 0 -6.48822927 0 0 0 Z " fill="#E60112" transform="translate(108,52)"/>
<path d="M0 0 C17.82 0 35.64 0 54 0 C52.8942227 5.52888649 50.93866156 10.02176548 48.625 15.125 C48.22539062 16.03121094 47.82578125 16.93742187 47.4140625 17.87109375 C47.0221875 18.74121094 46.6303125 19.61132812 46.2265625 20.5078125 C45.87158691 21.29816895 45.51661133 22.08852539 45.15087891 22.90283203 C43.25188457 26.36323961 41.7646456 27.74511813 38 29 C36.48092376 29.08669529 34.95830999 29.117694 33.43676758 29.11352539 C32.51603958 29.11344986 31.59531158 29.11337433 30.64668274 29.11329651 C29.65597275 29.10813522 28.66526276 29.10297394 27.64453125 29.09765625 C26.62775803 29.0962413 25.6109848 29.09482635 24.56340027 29.09336853 C21.31307036 29.08776707 18.06280912 29.07521432 14.8125 29.0625 C12.61002704 29.05748519 10.40755299 29.05292225 8.20507812 29.04882812 C2.80336196 29.03779717 -2.59831412 29.02105762 -8 29 C-7.01719116 21.56670587 -7.01719116 21.56670587 -5.87890625 18.02734375 C-5.66556641 17.35509766 -5.45222656 16.68285156 -5.23242188 15.99023438 C-5.01134766 15.31283203 -4.79027344 14.63542969 -4.5625 13.9375 C-4.34529297 13.25623047 -4.12808594 12.57496094 -3.90429688 11.87304688 C-2.63473379 7.90423255 -1.31780276 3.95340828 0 0 Z " fill="#DA0110" transform="translate(135,102)"/>
<path d="M0 0 C-1.81869342 8.54234789 -4.07816197 16.76842586 -7 25 C-7.33 25 -7.66 25 -8 25 C-8 22.03 -8 19.06 -8 16 C-11.96 16.495 -11.96 16.495 -16 17 C-15.125 9.125 -15.125 9.125 -14 8 C-14.99 7.01 -15.98 6.02 -17 5 C-14.91999989 4.15838146 -12.83585854 3.32699237 -10.75 2.5 C-9.58984375 2.0359375 -8.4296875 1.571875 -7.234375 1.09375 C-4 0 -4 0 0 0 Z " fill="#C6000C" transform="translate(108,52)"/>
<path d="M0 0 C1.51400391 0.01740234 1.51400391 0.01740234 3.05859375 0.03515625 C4.07050781 0.04417969 5.08242187 0.05320313 6.125 0.0625 C7.29869141 0.07990234 7.29869141 0.07990234 8.49609375 0.09765625 C7.68660835 2.07805781 6.87342206 4.05694702 6.05859375 6.03515625 C5.60613281 7.13730469 5.15367187 8.23945313 4.6875 9.375 C3.49609375 12.09765625 3.49609375 12.09765625 2.49609375 13.09765625 C0.64321873 13.16992127 -1.21224503 13.18146845 -3.06640625 13.16015625 C-4.07832031 13.15113281 -5.09023437 13.14210937 -6.1328125 13.1328125 C-6.91527344 13.12121094 -7.69773437 13.10960937 -8.50390625 13.09765625 C-7.69442085 11.11725469 -6.88123456 9.13836548 -6.06640625 7.16015625 C-5.61394531 6.05800781 -5.16148438 4.95585937 -4.6953125 3.8203125 C-3.07608172 0.11997199 -3.07608172 0.11997199 0 0 Z " fill="#090000" transform="translate(129.50390625,195.90234375)"/>
<path d="M0 0 C3.63 0.33 7.26 0.66 11 1 C9.02 4.96 7.04 8.92 5 13 C-1.93359375 12.4140625 -1.93359375 12.4140625 -4 12 C-4.33 11.34 -4.66 10.68 -5 10 C-3.55595535 6.54561869 -1.74380347 3.31747977 0 0 Z " fill="#0A0000" transform="translate(106,195)"/>
<path d="M0 0 C3.52069985 0.58678331 5.71299843 1.35649921 9 3 C7.35 6.63 5.7 10.26 4 14 C0.24364431 13.24872886 -1.83210307 12.75994274 -5 11 C-3.77472971 6.94718288 -2.30119506 3.55639236 0 0 Z " fill="#0A0000" transform="translate(89,189)"/>
<path d="M0 0 C4.60470588 1.45411765 4.60470588 1.45411765 6.3125 3.8125 C7 6 7 6 6.1015625 8.140625 C5.61429688 8.83671875 5.12703125 9.5328125 4.625 10.25 C4.14289063 10.95640625 3.66078125 11.6628125 3.1640625 12.390625 C2.77992187 12.92171875 2.39578125 13.4528125 2 14 C-0.96175123 13.38722388 -2.38058783 12.74627478 -5 11 C-4.46884894 6.48521602 -2.63379708 3.65333143 0 0 Z " fill="#080000" transform="translate(75,180)"/>
<path d="M0 0 C0.33 0 0.66 0 1 0 C1.25218023 4.28706385 1.39788506 7.93897316 -0.125 12 C-2.59190181 14.63136193 -4.47221403 14.76481427 -8 15 C-8 11.04 -8 7.08 -8 3 C-6.68 3.33 -5.36 3.66 -4 4 C-1.7914234 2.12491838 -1.7914234 2.12491838 0 0 Z " fill="#8D0003" transform="translate(55,141)"/>
<path d="M0 0 C2.69378161 0.98771992 3.87777009 1.82887813 5.5625 4.1875 C6.0893276 7.57424883 5.55541652 8.11101059 3.625 10.8125 C2.76683741 11.88864507 1.89675296 12.95579438 1 14 C-1.69378161 13.01228008 -2.87777009 12.17112187 -4.5625 9.8125 C-5.0893276 6.42575117 -4.55541652 5.88898941 -2.625 3.1875 C-1.76683741 2.11135493 -0.89675296 1.04420562 0 0 Z " fill="#090000" transform="translate(64,169)"/>
<path d="M0 0 C2.2189585 3.32843774 2.92187766 5.01576085 3 9 C1.56309599 11.34694321 -0.05670106 13.00930352 -2 15 C-4.89653503 12.10346497 -4.93253626 10.04782457 -5 6 C-3.58296067 3.59103314 -2.00180539 2.00180539 0 0 Z " fill="#090000" transform="translate(58,155)"/>
<path d="M0 0 C-0.17493869 5.33563004 -0.17493869 5.33563004 -1 8 C-3.76217341 9.8806287 -5.62963578 11 -9 11 C-8.91217545 5.6427026 -8.91217545 5.6427026 -8 3 C-5.70271811 1.26716083 -2.9522676 0 0 0 Z " fill="#110001" transform="translate(101,58)"/>
<path d="M0 0 C0.3125 3.3125 0.3125 3.3125 0 7 C-2.39740918 8.95578117 -3.87586608 10 -7 10 C-7.375 7.25 -7.375 7.25 -7 4 C-2.05263158 0 -2.05263158 0 0 0 Z " fill="#0C0000" transform="translate(85,65)"/>
<path d="M0 0 C0 1.98 0 3.96 0 6 C-2.31 6.66 -4.62 7.32 -7 8 C-7 5.69 -7 3.38 -7 1 C-4.53721199 -0.231394 -2.7204945 -0.07159196 0 0 Z " fill="#0E0001" transform="translate(85,109)"/>
<path d="M0 0 C0.29359745 3.0534135 0.4451258 5.95743422 0 9 C-2.5 11.5625 -2.5 11.5625 -5 13 C-5.62837838 4.83108108 -5.62837838 4.83108108 -3.0625 1.4375 C-1 0 -1 0 0 0 Z " fill="#080000" transform="translate(56,141)"/>
<path d="M0 0 C0.3125 2.8125 0.3125 2.8125 0 6 C-2.38892501 7.88599343 -3.91851558 9 -7 9 C-7.3125 6.1875 -7.3125 6.1875 -7 3 C-4.61107499 1.11400657 -3.08148442 0 0 0 Z " fill="#210002" transform="translate(72,113)"/>
<path d="M0 0 C0.66 0 1.32 0 2 0 C5.07692308 5.29230769 5.07692308 5.29230769 4.6875 8.875 C4.460625 9.57625 4.23375 10.2775 4 11 C-2.75 10.25 -2.75 10.25 -5 8 C-3.02 7.67 -1.04 7.34 1 7 C0.67 4.69 0.34 2.38 0 0 Z " fill="#C6000D" transform="translate(84,108)"/>
<path d="M0 0 C1.55544021 4.66632064 -0.48852847 8.46558541 -2 13 C4.93 13.495 4.93 13.495 12 14 C12 14.33 12 14.66 12 15 C6.72 15 1.44 15 -4 15 C-3.15393802 9.07756617 -2.15984041 5.35264798 0 0 Z " fill="#A10006" transform="translate(131,116)"/>
<path d="M0 0 C0 1.65 0 3.3 0 5 C-1.98 5.99 -1.98 5.99 -4 7 C-4.1875 4.625 -4.1875 4.625 -4 2 C-1 0 -1 0 0 0 Z " fill="#130101" transform="translate(60,120)"/>
<path d="M0 0 C0.99 0.33 1.98 0.66 3 1 C1.35 2.65 -0.3 4.3 -2 6 C-2.33 5.01 -2.66 4.02 -3 3 C-2.01 2.01 -1.02 1.02 0 0 Z " fill="#F30116" transform="translate(58,126)"/>
<path d="M0 0 C0.33 0 0.66 0 1 0 C1.36923077 7.50769231 1.36923077 7.50769231 -0.5 10 C-0.995 10.33 -1.49 10.66 -2 11 C-1.125 3.375 -1.125 3.375 0 0 Z " fill="#9D0006" transform="translate(134,105)"/>
</svg>
